<?xml version="1.0" encoding="iso-8859-1"?>
<!-- Generator: Adobe Illustrator 16.0.0, SVG Export Plug-In . SVG Version: 6.00 Build 0)  -->
<!DOCTYPE svg PUBLIC "-//W3C//DTD SVG 1.1//EN" "http://www.w3.org/Graphics/SVG/1.1/DTD/svg11.dtd">
<svg version="1.1" id="Capa_1" xmlns="http://www.w3.org/2000/svg" xmlns:xlink="http://www.w3.org/1999/xlink" x="0px" y="0px"
	 width="365.4px" height="365.4px" viewBox="0 0 365.4 365.4" style="enable-background:new 0 0 365.4 365.4;" xml:space="preserve"
	>
<g>
	<g>
		<path d="M283.101,123.351l26.8-26.8c3.8-3.8,3.8-9.6,0-13.4s-9.601-3.8-13.4,0l-26.8,26.8c-3.8,3.8-3.8,9.6,0,13.4
			C273.601,127.15,281.2,127.15,283.101,123.351z"/>
		<path d="M181.8,87.05c5.7,0,9.601-3.8,9.601-9.6v-38.2c0-5.7-3.8-9.6-9.601-9.6c-3.8,0-9.6,3.8-9.6,9.6v38.2
			C172.2,83.15,177.9,87.05,181.8,87.05z"/>
		<path d="M308,211.351c0,5.7,3.8,9.6,9.601,9.6H355.8c5.7,0,9.601-3.8,9.601-9.6s-3.8-9.601-9.601-9.601h-38.199
			C311.8,201.75,308,207.551,308,211.351z"/>
		<path d="M80.4,123.351c3.8,3.8,9.6,3.8,13.4,0c3.8-3.8,3.8-9.6,0-13.4L67,83.15c-3.8-3.8-9.6-3.8-13.4,0c-3.8,3.8-3.8,9.6,0,13.4
			L80.4,123.351z"/>
		<path d="M9.6,220.851h38.2c5.7,0,9.6-3.8,9.6-9.601c0-5.8-3.8-9.6-9.6-9.6H9.6c-5.7,0-9.6,5.7-9.6,9.6
			C0.1,217.051,3.9,220.851,9.6,220.851z"/>
		<path d="M353.9,259.15H237.2l-23,19.1l-34.4,28.7l-30.6-28.7l-22.9-19.1H9.6c-3.8,0-9.6,3.8-9.6,9.6c0,5.801,5.7,9.601,9.6,9.601
			h105.2l66.9,57.399l66.9-57.399H353.8c5.7,0,9.601-3.8,9.601-9.601C363.4,262.95,359.601,259.15,353.9,259.15z"/>
		<path d="M78.5,220.851h19.1c0-3.8,0-5.7,0-9.601c0-47.8,38.2-86.1,86.1-86.1c47.9,0,86.1,38.2,86.1,86.1c0,3.801,0,5.7,0,9.601
			H288.9c0-3.8,0-5.7,0-9.601c0-57.399-47.8-105.2-105.2-105.2c-57.4,0-105.2,47.8-105.2,105.2
			C76.6,215.15,76.6,217.051,78.5,220.851z"/>
	</g>
</g>
<g>
</g>
<g>
</g>
<g>
</g>
<g>
</g>
<g>
</g>
<g>
</g>
<g>
</g>
<g>
</g>
<g>
</g>
<g>
</g>
<g>
</g>
<g>
</g>
<g>
</g>
<g>
</g>
<g>
</g>
</svg>
